<?xml version="1.0" encoding="utf-8"?>
<!-- Generator: Adobe Illustrator 21.1.0, SVG Export Plug-In . SVG Version: 6.00 Build 0)  -->
<svg version="1.1" id="Ebene_1" xmlns="http://www.w3.org/2000/svg" xmlns:xlink="http://www.w3.org/1999/xlink" x="0px" y="0px"
	 viewBox="0 0 44.2 37.3" style="enable-background:new 0 0 44.2 37.3;" xml:space="preserve">
<style type="text/css">
	.st0{fill:#0F3B80;}
	.st1{fill:#DD0332;}
</style>
<path class="st0" d="M4.6,14.8l10.6,18.4l18.4-10.6L22.9,4.2L4.6,14.8L4.6,14.8z M5.3,26.6C0.9,19,3.5,9.3,11.2,4.9
	c7.6-4.4,17.3-1.8,21.7,5.8c4.4,7.6,1.8,17.3-5.8,21.7C19.5,36.8,9.7,34.2,5.3,26.6L5.3,26.6z"/>
<path class="st1" d="M4.6,33.9c14-10.2,16.3-8.5,16.4-8.5c3.4,0,6.4,6.5,9.7,6c0.9-0.2,3-0.7,6.1-2.6c0,0-5.7,5.7-8.2,5.7
	c-4.3,0-7.8-7-10.9-7.2c-2.1-0.1-5.7,3-11.5,7.2L4.6,33.9L4.6,33.9z"/>
<polygon class="st1" points="23.5,16.1 20.5,21.3 17.5,16.1 "/>
<polygon class="st1" points="28.2,13.4 25.2,18.6 22.1,13.4 "/>
<polygon class="st1" points="32.8,10.7 29.7,16 26.7,10.7 "/>
<polygon class="st1" points="41.7,26 38.7,31.3 35.6,26 "/>
</svg>
