<?xml version="1.0" encoding="utf-8"?>
<!-- Generator: Adobe Illustrator 21.1.0, SVG Export Plug-In . SVG Version: 6.00 Build 0)  -->
<svg version="1.1" id="Ebene_1" xmlns="http://www.w3.org/2000/svg" xmlns:xlink="http://www.w3.org/1999/xlink" x="0px" y="0px"
	 viewBox="0 0 851.3 156.9" style="enable-background:new 0 0 851.3 156.9;" xml:space="preserve">
<style type="text/css">
	.st0{fill:#0F3B80;}
	.st1{fill-rule:evenodd;clip-rule:evenodd;fill:#DD0332;}
	.st2{fill:#013F8F;}
	.st3{fill:#DC0035;}
</style>
<path class="st0" d="M7.9,59.8l50.2,86.9L145,96.5L94.8,9.6L7.9,59.8L7.9,59.8z M11.6,115.5C-9.1,79.5,3.2,33.6,39.1,12.9
	C75.1-7.9,121,4.4,141.7,40.3c20.7,35.9,8.4,81.9-27.5,102.6C78.3,163.7,32.4,151.4,11.6,115.5L11.6,115.5z"/>
<path class="st1" d="M8,150.1c66.3-47.9,76.9-39.9,77.7-39.9c16,0,30.2,30.8,46,28.3c4.5-0.7,14.2-3.3,28.8-12.3
	c0,0-26.9,26.8-38.7,26.8c-20.5,0-36.6-33.1-51.5-33.9c-10-0.5-26.9,14.2-54.3,33.9L8,150.1L8,150.1z"/>
<polygon class="st1" points="97.8,65.6 83.4,90.4 69.1,65.6 97.8,65.6 "/>
<polygon class="st1" points="119.8,52.9 105.5,77.7 91.1,52.9 119.8,52.9 "/>
<polygon class="st1" points="141.3,40.4 127,65.3 112.7,40.4 141.3,40.4 "/>
<polygon class="st1" points="183.6,112.6 169.2,137.5 154.9,112.6 183.6,112.6 "/>
<g>
	<path class="st2" d="M193.4,36.2h4.2l7.2,26.3h0.1l7.8-26.3h4.2l7.7,26.3h0.1l7.3-26.3h3.9L226.6,68h-4.1l-7.8-26.9h-0.1L206.8,68
		h-4.1L193.4,36.2z"/>
	<path class="st2" d="M242,36.2h19.9v3.5h-16.2v9.9h15.1v3.5h-15.1v11.3h17V68H242V36.2z"/>
	<path class="st2" d="M269.6,36.2h3.8V68h-3.8V36.2z"/>
	<path class="st2" d="M304.1,39.7h-10.5V68h-3.8V39.7h-10.5v-3.5h24.7V39.7z"/>
	<path class="st2" d="M310.1,36.2H330v3.5h-16.2v9.9H329v3.5h-15.1v11.3h17V68h-20.7V36.2z"/>
	<path class="st2" d="M337.6,36.2h8.1c6.1,0,12.6,0.9,12.6,8.7c0,4.6-3,7.6-7.9,8.4l9,14.6h-4.6l-8.6-14.2h-4.8V68h-3.8V36.2z
		 M341.4,50.2h3.4c4.2,0,9.6,0,9.6-5.2c0-4.6-4-5.2-7.7-5.2h-5.3V50.2z"/>
	<path class="st2" d="M366.5,36.2h9.7c5.2,0,10.5,2,10.5,7.8c0,3.7-2.1,6.1-5.6,7.2v0.1c4.1,0.4,7.2,3.6,7.2,7.8
		c0,7-6.5,8.9-12.4,8.9h-9.4V36.2z M370.3,49.7h5.2c3.5,0,7.2-0.8,7.2-5.2c0-3.9-3.4-4.8-6.8-4.8h-5.6V49.7z M370.3,64.5h6.4
		c3.7,0,7.7-1.5,7.7-5.5c0-4.4-3.8-5.8-7.6-5.8h-6.4V64.5z"/>
	<path class="st2" d="M396.3,36.2h3.8V68h-3.8V36.2z"/>
	<path class="st2" d="M409.5,36.2h3.8v28.2h14.5V68h-18.3V36.2z"/>
	<path class="st2" d="M433.4,36.2h12.2c6.2,0,15.5,4.2,15.5,15.9c0,11.7-9.3,15.9-15.5,15.9h-12.2V36.2z M437.2,64.5h7.2
		c7.3,0,12.8-3.7,12.8-12.4c0-8.7-5.5-12.4-12.8-12.4h-7.2V64.5z"/>
	<path class="st2" d="M492.5,55.9c0,6.9-3.2,12.9-12,12.9c-8.7,0-12-6-12-12.9V36.2h3.8v19.1c0,5.1,1.9,9.9,8.2,9.9
		c6.3,0,8.2-4.8,8.2-9.9V36.2h3.8V55.9z"/>
	<path class="st2" d="M501.9,36.2h4.7L525,62.6h0.1V36.2h3.8V68h-4.7l-18.4-26.3h-0.1V68h-3.8V36.2z"/>
	<path class="st2" d="M565.3,65.8c-3.6,2-7.7,3-11.9,3c-9.9,0-16.9-6.7-16.9-16.7c0-10,7.6-16.7,17.1-16.7c4.2,0,8.2,1.1,11.2,4.2
		l-2.8,3c-2.2-2.3-5.4-3.6-8.6-3.6c-7.3,0-12.8,5.5-12.8,13.2c0,7.6,5.3,13.2,13.1,13.2c2.6,0,5.6-0.7,7.9-1.8v-9.7h-7.3v-3.5h11.1
		V65.8z"/>
	<path class="st2" d="M590.1,36.2h3.8v13.4h16.9V36.2h3.8V68h-3.8V53.2h-16.9V68h-3.8V36.2z"/>
	<path class="st2" d="M624.1,36.2h19.9v3.5h-16.2v9.9H643v3.5h-15.1v11.3h17V68h-20.7V36.2z"/>
	<path class="st2" d="M667.8,41.8c-1.3-2-3.5-2.9-5.8-2.9c-3.3,0-6.8,1.6-6.8,5.3c0,2.9,1.6,4.2,6.7,5.8c4.9,1.6,9.5,3.2,9.5,9.4
		c0,6.3-5.4,9.3-11.2,9.3c-3.7,0-7.6-1.2-9.8-4.4l3.2-2.6c1.3,2.3,4,3.5,6.8,3.5c3.2,0,6.9-1.9,6.9-5.5c0-3.9-2.6-4.6-8.3-6.4
		c-4.5-1.5-7.9-3.4-7.9-8.7c0-6.1,5.2-9.1,10.8-9.1c3.5,0,6.5,1,8.9,3.7L667.8,41.8z"/>
	<path class="st2" d="M694,41.8c-1.3-2-3.5-2.9-5.8-2.9c-3.3,0-6.8,1.6-6.8,5.3c0,2.9,1.6,4.2,6.7,5.8c4.9,1.6,9.5,3.2,9.5,9.4
		c0,6.3-5.4,9.3-11.2,9.3c-3.7,0-7.6-1.2-9.8-4.4l3.2-2.6c1.3,2.3,4,3.5,6.8,3.5c3.2,0,6.9-1.9,6.9-5.5c0-3.9-2.6-4.6-8.3-6.4
		c-4.5-1.5-7.9-3.4-7.9-8.7c0-6.1,5.2-9.1,10.8-9.1c3.5,0,6.5,1,8.9,3.7L694,41.8z"/>
	<path class="st2" d="M705.3,36.2h19.9v3.5H709v9.9h15.1v3.5H709v11.3h17V68h-20.7V36.2z"/>
	<path class="st2" d="M732.8,36.2h4.7l18.4,26.3h0.1V36.2h3.8V68H755l-18.4-26.3h-0.1V68h-3.8V36.2z"/>
	<path class="st2" d="M802.7,64.1c-2.5,3.2-5.4,4.3-9.3,4.3c-6.6,0-10.6-4.9-10.6-11c0-6.5,4.6-11,10.7-11c5.9,0,9.9,4,9.9,11v1.1
		h-16.9c0.3,3.6,3,6.7,6.9,6.7c3,0,5-1.1,6.7-3.2L802.7,64.1z M799.7,55.6c-0.1-3.5-2.5-5.9-6.3-5.9s-6.4,2.4-6.9,5.9H799.7z"/>
	<path class="st2" d="M815,65.5c0,1.5-1.3,2.7-2.7,2.7c-1.4,0-2.7-1.2-2.7-2.7s1.2-2.7,2.7-2.7C813.8,62.8,815,64.1,815,65.5z"/>
	<path class="st2" d="M816.1,36.2h4.3l9.8,26.1h0.1l10.1-26.1h4L831.8,68h-3.6L816.1,36.2z"/>
	<path class="st2" d="M850.8,65.5c0,1.5-1.3,2.7-2.7,2.7c-1.4,0-2.7-1.2-2.7-2.7s1.2-2.7,2.7-2.7C849.5,62.8,850.8,64.1,850.8,65.5z
		"/>
</g>
<g>
	<path class="st3" d="M222.7,120.2h-15.1c-7.6,0-13.4-5.8-13.4-13.3c0-7.5,5.8-13.3,13.4-13.3c7.6,0,13.4,5.8,13.4,13.3
		c0,4.4-2.4,9-6.3,10.6v0.1h8V120.2z M207.6,117.3c5.7,0,10.1-4.6,10.1-10.5c0-5.8-4.2-10.5-10.1-10.5s-10.1,4.7-10.1,10.5
		C197.6,112.8,201.9,117.3,207.6,117.3z"/>
	<path class="st3" d="M240.8,116.1c0,1.6,0.1,2.9,0.1,4.1h-2.7c0-0.9-0.1-1.9-0.1-2.8h-0.1c-0.8,1.7-2.9,3.3-5.7,3.3
		c-4.5,0-6.5-2.9-6.5-7V103h2.9v10.3c0,2.9,1.2,4.7,3.9,4.7c3.7,0,5.3-2.7,5.3-6.6V103h2.9V116.1z"/>
	<path class="st3" d="M245.6,105.2c1.8-1.8,4.3-2.6,6.8-2.6c5.1,0,7.2,2.4,7.2,7.3v7.4c0,1,0.1,2.1,0.3,3h-2.8
		c-0.2-0.8-0.2-1.8-0.2-2.6h-0.1c-1.1,1.8-3,3-5.7,3c-3.5,0-6.4-1.8-6.4-5.1c0-5.7,6.6-6,10.8-6h1.1V109c0-2.5-1.6-3.8-4.3-3.8
		c-1.8,0-3.7,0.6-5.1,1.9L245.6,105.2z M253.9,111.9c-3.6,0-6,1-6,3.3c0,2.2,1.6,3,3.8,3c3.3,0,5-2.4,5.1-5.2v-1.1H253.9z"/>
	<path class="st3" d="M264.7,92.5h2.9v27.7h-2.9V92.5z"/>
	<path class="st3" d="M274.3,94.2c1.2,0,2.1,1,2.1,2.1c0,1.2-0.9,2.1-2.1,2.1s-2.1-0.9-2.1-2.1C272.2,95.2,273.1,94.2,274.3,94.2z
		 M272.9,103h2.9v17.2h-2.9V103z"/>
	<path class="st3" d="M290.5,105.4h-5.1v8.6c0,2.2,0,4,2.6,4c0.8,0,1.8-0.2,2.5-0.6l0.1,2.6c-1,0.4-2.3,0.6-3.3,0.6
		c-4.1,0-4.7-2.2-4.7-5.8v-9.4h-3.7V103h3.7v-4.9h2.9v4.9h5.1V105.4z"/>
	<path class="st3" d="M293.9,105.2c1.8-1.8,4.3-2.6,6.8-2.6c5.1,0,7.2,2.4,7.2,7.3v7.4c0,1,0.1,2.1,0.3,3h-2.8
		c-0.2-0.8-0.2-1.8-0.2-2.6h-0.1c-1.1,1.8-3,3-5.7,3c-3.5,0-6.4-1.8-6.4-5.1c0-5.7,6.6-6,10.8-6h1.1V109c0-2.5-1.6-3.8-4.3-3.8
		c-1.8,0-3.7,0.6-5.1,1.9L293.9,105.2z M299.3,96.5c0,1.1-0.9,2-2,2s-2-0.9-2-2c0-1.1,0.9-2,2-2S299.3,95.4,299.3,96.5z
		 M302.2,111.9c-3.6,0-6,1-6,3.3c0,2.2,1.6,3,3.8,3c3.3,0,5-2.4,5.1-5.2v-1.1H302.2z M306.6,96.5c0,1.1-0.9,2-2,2c-1.1,0-2-0.9-2-2
		c0-1.1,0.9-2,2-2C305.7,94.5,306.6,95.4,306.6,96.5z"/>
	<path class="st3" d="M322.2,105.4h-5.1v8.6c0,2.2,0,4,2.6,4c0.8,0,1.8-0.2,2.5-0.6l0.1,2.6c-1,0.4-2.3,0.6-3.3,0.6
		c-4.1,0-4.7-2.2-4.7-5.8v-9.4h-3.7V103h3.7v-4.9h2.9v4.9h5.1V105.4z"/>
	<path class="st3" d="M337.6,94.2c1.2,0,2.1,1,2.1,2.1c0,1.2-0.9,2.1-2.1,2.1s-2.1-0.9-2.1-2.1C335.5,95.2,336.4,94.2,337.6,94.2z
		 M336.1,103h2.9v17.2h-2.9V103z"/>
	<path class="st3" d="M344.2,107.1c0-1.6-0.1-2.9-0.1-4.1h2.7c0,0.9,0.1,1.9,0.1,2.8h0.1c0.8-1.7,2.9-3.3,5.7-3.3
		c4.5,0,6.5,2.9,6.5,7v10.6h-2.9v-10.3c0-2.9-1.2-4.7-3.9-4.7c-3.7,0-5.3,2.7-5.3,6.6v8.4h-2.9V107.1z"/>
	<path class="st3" d="M389.1,117.2L389.1,117.2c-1.1,1.9-3.6,3.5-6.7,3.5c-4.8,0-8.6-3.9-8.6-9c0-5.2,3.6-9,9-9
		c2.5,0,4.6,1.1,6.2,2.9h0.1V92.5h2.9v27.7h-2.9V117.2z M383,105.2c-3.7,0-6.1,2.8-6.1,6.4c0,3.6,2.4,6.4,6.1,6.4
		c3.7,0,6.1-2.8,6.1-6.4C389.1,108,386.7,105.2,383,105.2z"/>
	<path class="st3" d="M412.4,117.1c-2,2.6-4.4,3.6-7.6,3.6c-5.4,0-8.7-4-8.7-9c0-5.3,3.7-9,8.8-9c4.8,0,8.1,3.3,8.1,9v0.9h-13.9
		c0.2,3,2.5,5.5,5.6,5.5c2.5,0,4.1-0.9,5.5-2.6L412.4,117.1z M409.9,110.1c-0.1-2.9-2-4.8-5.2-4.8s-5.2,1.9-5.6,4.8H409.9z"/>
	<path class="st3" d="M417.1,107.1c0-1.6-0.1-2.9-0.1-4.1h2.7c0,0.9,0.1,1.9,0.1,2.8h0.1c0.8-1.7,2.9-3.3,5.7-3.3
		c0.4,0,0.8,0,1.2,0.2l-0.2,2.9c-0.5-0.1-1-0.2-1.5-0.2c-3.5,0-5,2.5-5,6.4v8.4h-2.9V107.1z"/>
	<path class="st3" d="M440.2,92.5h2.9v13h0.1c0.8-1.4,2.8-2.8,5.5-2.8c4.5,0,6.5,2.9,6.5,7v10.6h-2.9v-10.3c0-2.9-1.2-4.7-3.9-4.7
		c-3.7,0-5.3,2.7-5.3,6.6v8.4h-2.9V92.5z"/>
	<path class="st3" d="M475.6,117.1c-2,2.6-4.4,3.6-7.6,3.6c-5.4,0-8.7-4-8.7-9c0-5.3,3.7-9,8.8-9c4.8,0,8.1,3.3,8.1,9v0.9h-13.9
		c0.2,3,2.5,5.5,5.6,5.5c2.5,0,4.1-0.9,5.5-2.6L475.6,117.1z M473.2,110.1c-0.1-2.9-2-4.8-5.2-4.8s-5.2,1.9-5.6,4.8H473.2z"/>
	<path class="st3" d="M480.9,115.7c1.1,1.4,2.4,2.3,4.4,2.3c1.8,0,3.8-0.8,3.8-2.6c0-1.8-1.8-2.3-3.7-2.7c-3.3-0.7-6.1-1.4-6.1-5
		c0-3.3,3.2-5.1,6.4-5.1c2.4,0,4.7,0.9,5.8,3.1l-2.4,1.6c-0.7-1.2-1.9-2.1-3.6-2.1c-1.6,0-3.4,0.8-3.4,2.4c0,1.4,2.1,2.1,4.3,2.5
		c3,0.6,5.6,1.7,5.6,5.1c0,3.9-3.4,5.4-6.9,5.4c-2.9,0-5-0.8-6.7-3.2L480.9,115.7z"/>
	<path class="st3" d="M496.8,115.7c1.1,1.4,2.4,2.3,4.4,2.3c1.8,0,3.8-0.8,3.8-2.6c0-1.8-1.8-2.3-3.7-2.7c-3.3-0.7-6.1-1.4-6.1-5
		c0-3.3,3.2-5.1,6.4-5.1c2.4,0,4.7,0.9,5.8,3.1l-2.4,1.6c-0.7-1.2-1.9-2.1-3.6-2.1c-1.6,0-3.4,0.8-3.4,2.4c0,1.4,2.1,2.1,4.3,2.5
		c3,0.6,5.6,1.7,5.6,5.1c0,3.9-3.4,5.4-6.9,5.4c-2.9,0-5-0.8-6.7-3.2L496.8,115.7z"/>
	<path class="st3" d="M513.4,94.2c1.2,0,2.1,1,2.1,2.1c0,1.2-0.9,2.1-2.1,2.1s-2.1-0.9-2.1-2.1C511.3,95.2,512.2,94.2,513.4,94.2z
		 M512,103h2.9v17.2H512V103z"/>
	<path class="st3" d="M520.6,115.7c1.1,1.4,2.4,2.3,4.4,2.3c1.8,0,3.8-0.8,3.8-2.6c0-1.8-1.8-2.3-3.7-2.7c-3.3-0.7-6.1-1.4-6.1-5
		c0-3.3,3.2-5.1,6.4-5.1c2.4,0,4.7,0.9,5.8,3.1l-2.4,1.6c-0.7-1.2-1.9-2.1-3.6-2.1c-1.6,0-3.4,0.8-3.4,2.4c0,1.4,2.1,2.1,4.3,2.5
		c3,0.6,5.6,1.7,5.6,5.1c0,3.9-3.4,5.4-6.9,5.4c-2.9,0-5-0.8-6.7-3.2L520.6,115.7z"/>
	<path class="st3" d="M547.9,107.3c-1.2-1.5-2.6-2.1-4.3-2.1c-3.9,0-5.8,2.9-5.8,6.4c0,3.5,2.3,6.4,5.8,6.4c1.9,0,3.3-0.7,4.4-2.1
		l2.1,2c-1.7,1.9-4,2.8-6.5,2.8c-5.3,0-8.9-3.7-8.9-9c0-5.2,3.6-9,8.9-9c2.5,0,4.9,0.8,6.6,2.7L547.9,107.3z"/>
	<path class="st3" d="M553.2,92.5h2.9v13h0.1c0.8-1.4,2.8-2.8,5.5-2.8c4.5,0,6.5,2.9,6.5,7v10.6h-2.9v-10.3c0-2.9-1.2-4.7-3.9-4.7
		c-3.7,0-5.3,2.7-5.3,6.6v8.4h-2.9V92.5z"/>
	<path class="st3" d="M588.6,117.1c-2,2.6-4.4,3.6-7.6,3.6c-5.4,0-8.7-4-8.7-9c0-5.3,3.7-9,8.8-9c4.8,0,8.1,3.3,8.1,9v0.9h-13.9
		c0.2,3,2.5,5.5,5.6,5.5c2.5,0,4.1-0.9,5.5-2.6L588.6,117.1z M586.1,110.1c-0.1-2.9-2-4.8-5.2-4.8s-5.2,1.9-5.6,4.8H586.1z"/>
	<path class="st3" d="M593.3,107.1c0-1.6-0.1-2.9-0.1-4.1h2.7c0,0.9,0.1,1.9,0.1,2.8h0.1c0.8-1.7,2.9-3.3,5.7-3.3
		c4.5,0,6.5,2.9,6.5,7v10.6h-2.9v-10.3c0-2.9-1.2-4.7-3.9-4.7c-3.7,0-5.3,2.7-5.3,6.6v8.4h-2.9V107.1z"/>
	<path class="st3" d="M621.4,94.2h3.4l5.9,21.6h0.1l6.4-21.6h3.4l6.3,21.6h0.1l6-21.6h3.2l-7.6,26h-3.3l-6.4-22h-0.1l-6.5,22H629
		L621.4,94.2z"/>
	<path class="st3" d="M673.2,117.1c-2,2.6-4.4,3.6-7.6,3.6c-5.4,0-8.7-4-8.7-9c0-5.3,3.7-9,8.8-9c4.8,0,8.1,3.3,8.1,9v0.9h-13.9
		c0.2,3,2.5,5.5,5.6,5.5c2.5,0,4.1-0.9,5.5-2.6L673.2,117.1z M670.7,110.1c-0.1-2.9-2-4.8-5.2-4.8s-5.2,1.9-5.6,4.8H670.7z"/>
	<path class="st3" d="M679.4,94.2c1.2,0,2.1,1,2.1,2.1c0,1.2-0.9,2.1-2.1,2.1s-2.1-0.9-2.1-2.1C677.3,95.2,678.2,94.2,679.4,94.2z
		 M678,103h2.9v17.2H678V103z"/>
	<path class="st3" d="M695.6,105.4h-5.1v8.6c0,2.2,0,4,2.6,4c0.8,0,1.8-0.2,2.5-0.6l0.1,2.6c-1,0.4-2.3,0.6-3.3,0.6
		c-4.1,0-4.7-2.2-4.7-5.8v-9.4h-3.7V103h3.7v-4.9h2.9v4.9h5.1V105.4z"/>
	<path class="st3" d="M713.9,117.1c-2,2.6-4.4,3.6-7.6,3.6c-5.4,0-8.7-4-8.7-9c0-5.3,3.7-9,8.8-9c4.8,0,8.1,3.3,8.1,9v0.9h-13.9
		c0.2,3,2.5,5.5,5.6,5.5c2.5,0,4.1-0.9,5.5-2.6L713.9,117.1z M711.4,110.1c-0.1-2.9-2-4.8-5.2-4.8s-5.2,1.9-5.6,4.8H711.4z"/>
	<path class="st3" d="M718.6,107.1c0-1.6-0.1-2.9-0.1-4.1h2.7c0,0.9,0.1,1.9,0.1,2.8h0.1c0.8-1.7,2.9-3.3,5.7-3.3
		c0.4,0,0.8,0,1.2,0.2l-0.2,2.9c-0.5-0.1-1-0.2-1.5-0.2c-3.5,0-5,2.5-5,6.4v8.4h-2.9V107.1z"/>
	<path class="st3" d="M731.2,92.5h2.9v13.1h0.1c1.6-1.8,3.7-2.9,6.2-2.9c5.4,0,9,3.8,9,9c0,5.1-3.8,9-8.6,9c-3.1,0-5.5-1.5-6.6-3.5
		h-0.1v3h-2.9V92.5z M740.2,118c3.7,0,6.1-2.8,6.1-6.4c0-3.6-2.4-6.4-6.1-6.4c-3.7,0-6.1,2.8-6.1,6.4
		C734.1,115.2,736.5,118,740.2,118z"/>
	<path class="st3" d="M754.9,94.2c1.2,0,2.1,1,2.1,2.1c0,1.2-0.9,2.1-2.1,2.1s-2.1-0.9-2.1-2.1C752.9,95.2,753.8,94.2,754.9,94.2z
		 M753.5,103h2.9v17.2h-2.9V103z"/>
	<path class="st3" d="M761.7,92.5h2.9v27.7h-2.9V92.5z"/>
	<path class="st3" d="M784.1,117.2L784.1,117.2c-1.1,1.9-3.6,3.5-6.7,3.5c-4.8,0-8.6-3.9-8.6-9c0-5.2,3.6-9,9-9
		c2.5,0,4.6,1.1,6.2,2.9h0.1V92.5h2.9v27.7h-2.9V117.2z M778,105.2c-3.7,0-6.1,2.8-6.1,6.4c0,3.6,2.4,6.4,6.1,6.4
		c3.7,0,6.1-2.8,6.1-6.4C784.1,108,781.7,105.2,778,105.2z"/>
	<path class="st3" d="M806.9,116.1c0,1.6,0.1,2.9,0.1,4.1h-2.7c0-0.9-0.1-1.9-0.1-2.8h-0.1c-0.8,1.7-2.9,3.3-5.7,3.3
		c-4.5,0-6.5-2.9-6.5-7V103h2.9v10.3c0,2.9,1.2,4.7,3.9,4.7c3.7,0,5.3-2.7,5.3-6.6V103h2.9V116.1z"/>
	<path class="st3" d="M812.1,107.1c0-1.6-0.1-2.9-0.1-4.1h2.7c0,0.9,0.1,1.9,0.1,2.8h0.1c0.8-1.7,2.9-3.3,5.7-3.3
		c4.5,0,6.5,2.9,6.5,7v10.6h-2.9v-10.3c0-2.9-1.2-4.7-3.9-4.7c-3.7,0-5.3,2.7-5.3,6.6v8.4h-2.9V107.1z"/>
	<path class="st3" d="M849.3,119.4c0,6.2-3.3,9.6-9.4,9.6c-3.3,0-6-0.9-8.4-3.3l2.1-2.3c1.8,1.9,3.7,3,6.4,3c5.1,0,6.5-3.3,6.5-6.9
		v-2.2h-0.1c-1.4,2.2-3.8,3.2-6.1,3.2c-5.4,0-9.1-3.7-9.1-8.8c0-5.6,3.7-9,9.1-9c2.3,0,4.9,1.1,6.1,3.4h0.1V103h2.9V119.4z
		 M840.3,117.8c3.9,0,6.1-2.9,6.1-6.2c0-3.7-2.5-6.3-6.1-6.3c-3.6,0-6.1,2.8-6.1,6.4C834.2,115.1,836.9,117.8,840.3,117.8z"/>
</g>
</svg>
